<svg xmlns="http://www.w3.org/2000/svg" width="192" height="192" viewBox="0 0 192 192"><title>dbconnector</title><path fill="none" d="M28 26h136v136H28z"/><path d="M164 62a13.91 13.91 0 0 0-16.17-13.81A10 10 0 0 0 138 40h-.31a19.15 19.15 0 0 0-37.56 7c0 .41.13.8.2 1.2A14 14 0 1 0 96 75.84V76h56v-.16A14 14 0 0 0 164 62z" fill="#e4effa"/><path d="M28 88.33a13.91 13.91 0 0 1 16.17-13.82A10 10 0 0 1 54 66.33h.31a19.15 19.15 0 0 1 37.56 7c0 .41-.13.8-.2 1.2A14 14 0 1 1 96 102.17v.16H40v-.16a14 14 0 0 1-12-13.84z" fill="#e4effa"/><ellipse cx="98" cy="144" rx="50" ry="8" fill="#119dff"/><path fill="#119dff" d="M48 124h100v20H48z"/><ellipse cx="98" cy="124" rx="50" ry="8" fill="#096cb3"/><ellipse cx="98" cy="116" rx="50" ry="8" fill="#119dff"/><path fill="#119dff" d="M48 96h100v20H48z"/><ellipse cx="98" cy="96" rx="50" ry="8" fill="#096cb3"/><ellipse cx="98" cy="88" rx="50" ry="8" fill="#119dff"/><path fill="#119dff" d="M48 68h100v20H48z"/><ellipse cx="98" cy="68" rx="50" ry="8" fill="#096cb3"/><path d="M108 146a13.91 13.91 0 0 0-16.17-13.81A10 10 0 0 0 82 124h-.31a19.15 19.15 0 0 0-37.56 7c0 .41.13.8.2 1.2A14 14 0 1 0 40 159.84v.16h56v-.16A14 14 0 0 0 108 146z" fill="#e4effa"/><path fill="#19d3f3" d="M98 68l18 7.47 9.88.14L136 73.2 98 68z"/><path d="M136 73.2v20a169.1 169.1 0 0 1-20 2.26v-20a169.1 169.1 0 0 0 20-2.26z" fill="#09ffff"/><rect x="96" y="24" width="52" height="36" rx="2" ry="2" fill="#09ffff"/><path d="M116 60l4.4 5.87a2 2 0 0 0 3.2 0L128 60z" fill="#09ffff"/><circle cx="108" cy="50" r="2" fill="#fff"/><path d="M104 36a4 4 0 1 1 4 4v4" fill="none" stroke="#fff" stroke-linecap="round" stroke-linejoin="round" stroke-width="4"/><path fill="#fff" d="M120 32h16v4h-16zM120 40h20v4h-20zM120 48h16v4h-16z"/></svg>